<?xml version="1.0" standalone="no"?>
<!DOCTYPE svg PUBLIC "-//W3C//DTD SVG 20010904//EN"
 "http://www.w3.org/TR/2001/REC-SVG-20010904/DTD/svg10.dtd">
<svg version="1.0" xmlns="http://www.w3.org/2000/svg"
 width="16.000000pt" height="16.000000pt" viewBox="0 0 16.000000 16.000000"
 preserveAspectRatio="xMidYMid meet">
<metadata>
Created by potrace 1.11, written by Peter Selinger 2001-2013
</metadata>
<g transform="translate(0.000000,16.000000) scale(0.006154,-0.006154)"
fill="#000000" stroke="none">
<path d="M553 2215 c-12 -8 -110 -126 -218 -260 -161 -200 -198 -252 -202
-284 -5 -37 0 -45 175 -263 99 -124 187 -234 195 -244 9 -11 31 -38 49 -60 18
-23 47 -59 64 -80 18 -22 165 -205 328 -409 311 -387 330 -406 391 -391 33 8
71 48 180 192 22 29 94 119 160 201 67 81 186 229 265 328 79 99 147 182 150
185 3 3 30 37 60 75 30 39 57 72 60 75 3 3 67 83 143 178 112 141 137 179 137
205 0 25 -31 76 -142 235 -79 112 -149 213 -155 225 -7 12 -28 40 -47 62 l-34
40 -768 3 c-678 2 -772 1 -791 -13z"/>
</g>
</svg>
